<?xml version="1.0" standalone="no"?>
<!DOCTYPE svg PUBLIC "-//W3C//DTD SVG 20010904//EN"
 "http://www.w3.org/TR/2001/REC-SVG-20010904/DTD/svg10.dtd">
<svg version="1.0" xmlns="http://www.w3.org/2000/svg"
 width="512.000000pt" height="512.000000pt" viewBox="0 0 512.000000 512.000000"
 preserveAspectRatio="xMidYMid meet">
<metadata>
Created by potrace 1.14, written by Peter Selinger 2001-2017
</metadata>
<g transform="translate(0.000000,512.000000) scale(0.100000,-0.100000)"
fill="#000000" stroke="none">
<path d="M3392 5103 c-22 -11 -76 -74 -160 -187 -70 -94 -129 -173 -132 -176
-3 -3 -64 -84 -135 -180 -71 -96 -132 -177 -135 -180 -3 -3 -30 -39 -60 -80
-30 -41 -61 -82 -67 -90 -7 -8 -44 -57 -82 -108 -38 -51 -73 -94 -77 -94 -4
-1 -187 179 -408 400 -397 396 -402 400 -450 407 -121 19 -214 -102 -160 -208
9 -18 163 -178 341 -357 l325 -325 -919 -5 c-630 -4 -927 -9 -948 -16 -122
-45 -233 -138 -275 -229 -52 -113 -50 -61 -50 -1415 0 -1355 -1 -1304 51
-1415 30 -65 130 -164 199 -196 94 -45 138 -49 514 -49 l353 0 -103 -207
c-114 -227 -120 -249 -80 -317 31 -52 65 -71 130 -71 88 1 98 14 253 322 l136
273 1112 0 1112 0 139 -277 c121 -240 143 -279 174 -297 81 -48 170 -23 214
61 30 59 22 87 -87 305 l-103 207 380 3 c368 4 383 5 435 27 150 62 252 185
280 337 8 40 11 453 11 1309 0 1346 1 1300 -52 1403 -59 117 -199 218 -323
236 -16 2 -447 5 -958 5 l-927 1 359 479 c197 263 366 492 375 509 9 17 16 45
16 63 0 38 -35 104 -67 125 -36 23 -112 27 -151 7z m1341 -1499 c39 -21 50
-32 71 -71 15 -29 16 -145 16 -1269 l0 -1238 -21 -43 c-14 -30 -33 -50 -60
-63 -38 -20 -70 -20 -2174 -20 -2335 0 -2178 -4 -2230 56 -13 15 -26 40 -29
57 -3 16 -6 583 -6 1259 0 1191 1 1230 19 1266 19 37 48 61 86 74 11 3 982 6
2158 7 1958 1 2141 0 2170 -15z"/>
</g>
</svg>
